<?xml version="1.0" encoding="UTF-8" standalone="no"?>
<!DOCTYPE svg PUBLIC "-//W3C//DTD SVG 1.1//EN" "http://www.w3.org/Graphics/SVG/1.1/DTD/svg11.dtd">
<svg width="100%" height="100%" viewBox="0 0 1333 410" version="1.1" xmlns="http://www.w3.org/2000/svg" xmlns:xlink="http://www.w3.org/1999/xlink" xml:space="preserve" xmlns:serif="http://www.serif.com/" style="fill-rule:evenodd;clip-rule:evenodd;stroke-linejoin:round;stroke-miterlimit:2;">
    <g id="Background" transform="matrix(1.245117,0,0,1.245117,27,29)">
        <path d="M698.509,132.509C699.515,131.999 703.707,129.877 709.061,123.157C713.719,117.311 710.168,116.389 710.92,105.537C711.805,92.763 726.495,91.883 724.844,102.584C722.788,115.907 731.95,121.675 732.164,121.872C741.307,130.332 720.655,151.356 722.878,157.378C723.249,158.383 724.304,158.714 734.049,150C748.691,136.908 766.371,104.092 786.564,113.36C788.474,114.237 788.473,113.013 792.035,103.338C811.185,51.315 835.547,24.309 845.54,23.881C879.933,22.409 812.918,112.781 803.376,124.399C796.7,132.527 795.793,132.343 792.875,148.543C788.332,173.764 810.791,152.089 812.046,146.416C815.86,129.166 818.351,130.203 826.821,114.687C829.761,109.302 837.224,104.03 842.525,103.725C867.503,102.285 858.023,126.01 859.688,127.226C862.619,129.367 878.585,111.171 882.501,111.489C897.369,112.696 875.406,141.725 875.467,143.503C875.59,147.072 879.685,141.155 879.922,140.813C895.168,118.783 920.489,102.987 925.196,115.601C927.829,122.657 896.659,169.345 922.499,168.47C931.196,168.175 999.062,143.377 1018.327,161.678C1033.457,176.052 994.289,188.281 1006.051,180.153C1006.989,179.504 1015.884,173.357 1013.039,167.731C1004.189,150.227 944.332,170.642 939.386,172.004C873.426,190.164 912.155,122.863 911.385,121.561C911.028,120.959 910.356,120.29 903.698,125.747C867.847,155.136 873.136,170.565 862.38,167.972C859.804,167.351 854.203,165.458 868.266,135.382C871.324,128.839 875.917,121.749 870.567,126.596C861.089,135.183 857.039,133.155 855.494,136.497C843.06,163.387 827.1,168.614 822.478,167.613C813.248,165.614 813.414,159.614 812.685,157.384C812.586,157.082 811.968,155.799 809.104,159.116C796.142,174.131 780.341,168.981 781.447,153.501C781.997,145.796 777.745,153.718 776.28,155.308C772.958,158.913 761.92,170.98 751.405,166.732C737.634,161.169 747.89,141.192 741.606,149.598C729.789,165.406 718.434,170.409 713.665,167.238C700.88,158.736 726.009,129.402 722.026,124.892C716.015,118.085 715.961,129.24 702.416,137.359C694.05,142.373 691.533,139.6 687.1,148.284C675.464,171.083 647.215,183.05 646.823,155.498C646.787,152.977 647.348,153.097 647.335,150.526C647.317,147.151 642.017,154.523 625.284,165.158C619.839,168.618 620.386,169.337 610.686,191.581C608.883,195.717 608.822,195.588 606.975,199.711C569.595,283.158 526.422,286.502 516.696,278.262C504.088,267.58 523.251,242.657 523.872,241.758C535.307,225.217 558.928,202.352 564.993,197.942C565.162,197.819 569.646,194.558 564.499,195.378C544.687,198.532 376.746,203.446 221.609,249.853C186.937,260.225 182.561,268.797 175.797,262.215C161.188,248.001 256.977,222.196 368.442,206.139C475.377,190.734 573.001,189.516 573.497,189.462C577.897,188.982 594.998,176.163 596.756,174.845C604.01,169.407 605.872,170.845 609.093,162.354C622.278,127.603 625.202,128.708 625.263,125.488C625.326,122.196 621.4,126.937 621.174,127.211C596.541,156.961 542.288,199.717 517.678,180.255C474.301,145.948 571.855,36.144 646.631,7.852C686.648,-7.29 707.93,25.584 674.196,59.178C659.619,73.694 635.599,74.468 651.24,66.049C673.71,53.955 684.996,27.404 680.273,18.614C661.972,-15.452 550.249,81.742 528.321,140.429C503.846,205.93 574.354,171.767 627.095,111.164C635.382,101.642 643.133,85.36 650.163,92.795C655.071,97.985 641.021,118.232 634.98,133.696C627.936,151.725 621.595,161.891 627.278,157.171C636.027,149.905 640.383,148.079 649.165,139.18C649.588,138.751 659.12,125.894 659.307,125.43C670.902,96.78 701.187,106.623 692.929,133.578C691.601,137.915 696.286,133.618 696.497,133.425C697.67,132.967 697.62,133.091 698.509,132.509ZM596.47,183.461C599.457,181.225 599.467,181.3 600.437,180.397C606.744,174.524 599.922,186.876 598.791,189.619C597.711,192.236 589.364,212.464 583.902,221.728C581.404,225.963 564.309,258.264 540.35,270.223C511.996,284.374 523.559,257.324 537.577,239.563C560.078,211.055 592.489,186.843 596.47,183.461ZM845.861,35.453C845.316,35.463 845.049,34.528 844.503,34.538C843.558,34.556 843.415,36.965 843.881,37.216C844.411,37.502 845.124,37.278 845.654,37.564C842.014,55.996 812.876,103.78 805.234,112.312C803.158,114.63 798.597,125.406 796.917,123.35C796.094,122.343 797.036,122.331 803.185,108.355C807.392,98.795 823.349,56.479 841.956,34.905C844.251,32.244 845.179,32.358 845.525,32.401C847.55,32.65 846.395,33.52 845.861,35.453ZM754.936,151.606C764.129,123.034 787.082,112.663 785.189,123.444C783.1,135.339 783.852,135.867 776.117,145.178C764.976,158.588 752.614,166.199 754.936,151.606ZM823.944,147.629C826.177,141.346 828.283,135.731 829.903,132.771C831.544,129.773 833.341,134.96 837.46,136.596C840.142,137.662 845.369,137.814 845.384,137.819C848.443,138.867 831.96,163.189 824.463,159.562C821.544,158.15 823.731,148.561 823.944,147.629ZM674.443,143.806C678.533,144.321 681.166,143.703 679.31,147.415C674.743,156.555 655.933,176.911 658.787,153.544C659.443,148.177 663.757,135.154 666.085,137.871C667.313,139.305 667.943,142.083 674.443,143.806ZM673.499,124.5C675.136,120.16 675.697,119.208 675.95,118.779C680.48,111.097 690.566,116.108 684.846,134.605C682.329,142.744 674.725,136.388 673.873,135.246C670.403,130.591 672.071,130.125 673.499,124.5ZM852.112,120.497C851.871,123.062 851.986,133.402 844.509,131.464C831.596,128.116 842.654,104.39 850.089,111.911C851.721,113.562 852.072,119.793 852.112,120.497ZM845.861,35.453L845.654,37.564C845.124,37.278 844.411,37.502 843.881,37.216C843.415,36.965 843.558,34.556 844.503,34.538C845.049,34.528 845.316,35.463 845.861,35.453Z" style="fill:rgb(4,4,4);fill-opacity:0.97;"/>
        <path d="M325.442,160.455C315.127,174.693 295.664,175.626 302.316,150.448C306.775,133.57 316.412,124.133 309.525,129.541C308.234,130.555 308.576,130.743 295.86,144.811C283.124,158.9 274.548,180.354 267.727,169.369C263.44,162.465 277.792,139.665 276.564,138.444C275.801,137.686 275.668,138.337 264.742,144.849C263.783,145.421 250.299,177.879 231.426,175.859C225.788,175.255 217.647,167.417 223.749,149.586C227.508,138.601 230.13,135.987 226.524,136.745C221.434,137.815 215.931,138.717 215.412,140.463C210.738,156.201 203.997,181.447 148.791,216.961C97.809,249.757 17.584,263.349 30.948,227.678C37.96,208.961 79.462,186.769 84.32,184.171C150.102,148.996 200.594,137.904 201.579,135.541C203.014,132.102 202.511,111.104 174.556,107.204C170.339,106.616 148.312,103.543 121.65,112.933C114.966,115.287 115.391,120.99 110.209,131.358C104.602,142.577 96.958,171.642 90.461,172.085C80.038,172.795 85.054,157.731 85.468,156.488C102.615,104.989 143.417,28.788 153.422,25.265C154.591,24.853 163.667,23.872 158.653,33.583C150.526,49.321 149.918,48.892 141.864,64.682C140.552,67.255 125.183,98.642 124.812,99.549C120.632,109.774 237.488,41.742 212.119,15.876C188.568,-8.136 67.596,38.137 19.415,92.43C-3.539,118.296 26.624,126.894 29.445,127.699C34.635,129.178 35.987,128.258 35.733,130.6C35.407,133.594 -16.536,129.415 9.863,90.737C25.012,68.543 65.299,44.976 70.688,41.823C147.5,-3.109 224.812,-12.45 226.254,26.512C227.192,51.87 180.715,86.717 155.67,96.789C155.488,96.862 147.294,101.235 155.486,99.231C162.866,97.427 208.979,92.81 215.299,129.534C216.206,134.799 218.356,132.751 223.527,131.623C234.598,129.208 232.456,125.66 235.745,121.685C237.122,120.02 248.657,106.075 262.434,117.582C272.453,125.95 262.383,140.843 270.312,136.155C285.545,127.146 281.266,107.179 292.525,112.451C304.752,118.176 278.196,153.097 281.378,153.631C284.839,154.212 286.765,145.636 296.614,134.6C298.234,132.786 319.52,108.936 324.108,121.631C326.229,127.502 299.069,172.422 318.256,160.147C321.133,158.306 332.021,147.397 333.686,142.566C337.559,131.325 341.752,110.876 350.308,118.714C357.361,125.175 335.492,157.499 344.557,149.577C345.991,148.323 344.031,146.938 357.969,129.909C374.17,110.113 390.294,110.932 384.063,125.316C383.717,126.114 370.742,151.668 371.809,160.442C372.621,167.112 387.198,152.635 389.099,147.352C395.77,128.816 400.15,109.87 408.416,112.76C417.104,115.797 410.635,121.846 399.976,150.684C399.736,151.333 395.589,162.553 400.412,159.327C414.1,150.171 418.973,138.89 419.921,136.695C437.787,95.338 470.903,108.665 458.213,129.326C448.568,145.029 431.658,141.577 429.859,147.598C418.121,186.891 471.08,157.826 494.198,128.179C498.933,122.106 498.16,134.243 483.367,148.368C451.795,178.515 417.298,182.987 416.447,154.511C416.301,149.615 407.755,163.829 398.381,168.238C393.074,170.734 388.199,167.69 386.924,163.338C385.235,157.571 382.992,166.325 373.58,169.724C364.078,173.154 353.021,164.303 370.449,129.484C371.428,127.529 370.35,126.362 368.725,127.829C350.559,144.241 338.014,170.683 332.447,169.979C326.174,169.186 328.139,161.265 328.339,160.46C328.326,158.975 329.035,158.23 327.491,158.282C326.932,158.301 325.578,160.259 325.442,160.455ZM63.462,241.06C8.293,246.93 54.86,194.461 186.367,148.109C187.397,147.747 198.811,143.724 199.518,144.483C201.921,147.062 177.075,195.014 107.654,227.835C89.211,236.555 67.097,240.424 63.462,241.06ZM232.962,160.555C237.183,141.946 239.582,142.043 240.765,143.021C247.851,148.881 255.616,145.926 253.776,149.597C247.775,161.566 241.295,165.962 239.82,166.962C232.124,172.182 232.722,165.921 232.962,160.555ZM251.3,121.235C253.102,123.548 253.884,123.582 255.637,121.321C260.824,126.713 260.563,141.428 253.495,141.177C243.103,140.807 244.274,128.475 251.3,121.235ZM446.831,118.78C447.06,121.396 448.308,121.268 450.286,119.459C450.361,119.863 450.944,120.046 451.02,120.45C451.541,123.25 447.377,132.797 440.922,135.846C439.6,134.744 439.414,133.864 438.216,135.156C438.063,135.322 437.631,135.348 437.677,135.569C437.791,136.107 438.48,136.403 438.594,136.942C438.3,137.079 435.397,138.428 434.68,138.023C433.627,137.428 438.581,124.897 446.831,118.78ZM446.831,118.78C448.003,117.802 448.409,117.758 448.57,117.741C450.005,117.589 449.634,118.206 450.286,119.459C448.308,121.268 447.06,121.396 446.831,118.78ZM251.3,121.235C253.398,120.209 253.49,120.218 255.637,121.321C253.884,123.582 253.102,123.548 251.3,121.235ZM440.922,135.846C440.146,136.211 439.37,136.576 438.594,136.942C438.48,136.403 437.791,136.107 437.677,135.569C437.631,135.348 438.063,135.322 438.216,135.156C439.414,133.864 439.6,134.744 440.922,135.846Z" style="fill:rgb(5,4,4);fill-opacity:0.97;"/>
        <path d="M742.509,188.026C744.91,188.213 744.877,188 772.531,190.112C807.678,192.796 867.111,202.252 855.049,221.192C848.382,231.659 811.75,232.164 830.39,227.111C844.046,223.409 849.753,215.539 836.312,209.927C810.431,199.122 765.956,196.256 725.487,193.729C681.708,190.995 632.57,193.121 624.498,193.47C619.179,193.7 615.722,194.519 617.989,189.72C619.482,186.559 620.342,186.274 661.504,185.761C673.586,185.61 711.872,185.85 742.509,188.026Z" style="fill:rgb(5,4,4);fill-opacity:0.96;"/>
        <path d="M408.073,100.438C410.476,93.252 418.579,88.355 421.482,88.648C433.431,89.858 409.492,114.496 408.073,100.438Z" style="fill:rgb(5,4,4);fill-opacity:0.96;"/>
        <path d="M251.3,121.235C253.398,120.209 253.49,120.218 255.637,121.321C253.884,123.582 253.102,123.548 251.3,121.235Z" style="fill:rgb(77,76,76);fill-opacity:0.07;"/>
        <path d="M325.442,160.455C325.578,160.259 326.932,158.301 327.491,158.282C329.035,158.23 328.326,158.975 328.339,160.46C326.884,160.627 326.95,160.67 325.442,160.455Z" style="fill:rgb(123,124,125);fill-opacity:0.28;"/>
        <path d="M440.922,135.846C440.146,136.211 439.37,136.576 438.594,136.942C438.48,136.403 437.791,136.107 437.677,135.569C437.631,135.348 438.063,135.322 438.216,135.156C439.414,133.864 439.6,134.744 440.922,135.846Z" style="fill:rgb(175,175,175);fill-opacity:0.05;"/>
    </g>
</svg>
