<?xml version="1.0" encoding="UTF-8" standalone="no"?>
<!DOCTYPE svg PUBLIC "-//W3C//DTD SVG 1.1//EN" "http://www.w3.org/Graphics/SVG/1.1/DTD/svg11.dtd">
<svg width="100%" height="100%" viewBox="0 0 543 471" version="1.1" xmlns="http://www.w3.org/2000/svg" xmlns:xlink="http://www.w3.org/1999/xlink" xml:space="preserve" xmlns:serif="http://www.serif.com/" style="fill-rule:evenodd;clip-rule:evenodd;stroke-linejoin:round;stroke-miterlimit:2;">
    <g transform="matrix(1,0,0,1,-81.242981,-75.659054)">
        <g id="Background" transform="matrix(1,0,0,1,78,73)">
            <path d="M545.911,398.503C545.443,405.753 544.169,406.854 530.802,430.659C513.335,461.769 512.432,462.27 509.479,461.68C497.85,459.359 492.69,458.456 488.495,456.452C481.283,453.007 491.468,460.841 491.832,461.121C496.646,464.824 496.24,465.137 500.124,469.809C502.643,472.841 498.795,472.861 498.519,472.862C494.353,472.884 448.984,473.119 446.445,472.789C443.873,472.454 443.98,471.865 427.895,446.195C322.687,278.297 325.61,276.605 290.091,207.71C289.091,205.769 283.263,194.466 277.212,183.646C274.667,179.096 275.292,178.231 290.206,153.341C297.422,141.296 346.479,55.711 347.502,55.505C350.071,54.987 349.281,56.754 362.102,77.807C373.971,97.296 468.748,261.934 504.104,319.809C512.436,333.448 519.506,346.032 520.801,348.338C536.542,376.356 545.421,384.506 545.911,398.503Z" style="fill:rgb(254,177,38);fill-opacity:0.99;"/>
            <path d="M294.482,333.048C298.479,332.848 307.688,332.386 344.501,332.342C347.553,332.338 348.228,332.218 353.04,340.767C382.344,392.831 401.77,425.554 403.029,427.776C426.676,469.488 429.474,472.298 425.482,472.349C413.046,472.51 413.058,472.394 155.5,472.489C48.739,472.529 46.454,473.824 35.758,462.259C28.897,454.839 7.535,415.244 3.756,407.372C3.003,405.804 1.293,402.24 14.342,388.376C19.014,383.412 9.599,386.594 8.588,386.845C1.582,388.586 6.015,383.427 11.263,374.366C25.222,350.265 24.625,347.94 32.505,347.679C78.423,346.159 229.991,333.967 294.482,333.048Z" style="fill:rgb(138,0,0);fill-opacity:0.99;"/>
            <path d="M285.503,3.037C308.162,2.692 308.385,3.516 309.006,4.789C313.742,14.502 315.41,25.926 317.975,15.649C318.377,14.039 320.346,7.438 321.566,7.881C322.551,8.238 334.682,31.291 335.769,33.356C340.224,41.823 342.534,42.434 337.798,50.667C314.543,91.089 191.775,332.825 191.291,333.204C188.326,335.527 109.173,334.174 38.496,334.572C34.982,334.592 36.278,331.686 58.159,295.296C66.455,281.497 121.254,187.045 126.721,177.621C202.207,47.512 200.754,46.691 207.704,35.612C221.647,13.387 219.711,3.133 251.503,2.709C266.459,2.51 282.784,2.961 285.503,3.037Z" style="fill:rgb(0,79,130);fill-opacity:0.99;"/>
        </g>
    </g>
</svg>
